<svg xmlns="http://www.w3.org/2000/svg" viewBox="0 0 217.44 105.98"><defs><style>.cls-1{fill:#005a8c;}.cls-1,.cls-2{fill-rule:evenodd;}.cls-2{fill:#848484;}</style></defs><g id="Layer_1" data-name="Layer 1"><path class="cls-1" d="M686.26,495.74c7.42-1.52,35-.48,35-.48s13.22-4.52,14.4-11.52H672.34l-32.16,55.68L608,483.74H544.18s5.3,9.66,16.32,11,33.6,1,33.6,1,11.52,3.16,11.52,10.56c0,.07-48.48,0-48.48,0s7.06,11.32,19.68,11.52c15.45.24,15.78-.93,28.8,0,5.23.37,7.77,2.71,12.48,8.64s21.6,38.4,21.6,38.4l24.48-41.28s4.25-6.24,11.52-5.28c9.15-.63,32.64-1,32.64-1s10.86-1.56,14.4-11c-6.58.13-48.48-.48-48.48-.48S678.84,497.25,686.26,495.74Z" transform="translate(-531.28 -458.87)"/></g><g id="Layer_2" data-name="Layer 2"><path class="cls-2" d="M531.28,458.87l91.2.48,17.76,30.24,17.28-30.24,91.2-.48s-4.53,9.65-15.36,12c-33.5.59-53.6-.39-61.44.48s-7.67,3.58-11,8.16c-3.32,6.82-20.64,35-20.64,35s-23.38-39.6-21.6-37-5.39-7.95-12.48-6.72c-25.44-.08-57.6,0-57.6,0S533.61,467.36,531.28,458.87Z" transform="translate(-531.28 -458.87)"/></g></svg>